<?xml version="1.0" encoding="UTF-8" standalone="no"?> <svg id="outline" xmlns="http://www.w3.org/2000/svg" viewBox="0 0 340 340"><title>1_jaguars</title><path d="M228.53,104.739c.04,0,10.27-.334,15.678-1.233,2.994-.5,4.415,2.095,4.713,5.224a3.555,3.555,0,0,0,3.871,3,4.116,4.116,0,0,0,3.824-5.2c-.54-2.071-1.151-4.055-1.814-5.956a51.248,51.248,0,0,1,10.188-1.958c12.67-1.025,20.36,3.747,23.493,14.579a68.546,68.546,0,0,1,2.5,14.915,7.887,7.887,0,0,1-6.193,8.184l-24.657,5.373a162.5,162.5,0,0,0-.642-18.244,4.1,4.1,0,0,0-4-3.758,4,4,0,0,0-3.979,4.385,154.887,154.887,0,0,1,.6,18.2,58.415,58.415,0,0,1-8.868,25,8.077,8.077,0,0,0,.465,9.565c6.317,7.654,15,18.828,19.907,25.183a18.749,18.749,0,0,1,3.551,15.253c-.448,2.168-1.021,4.473-1.7,6.856a5,5,0,0,1-4.857,3.734,4.806,4.806,0,0,1-4.628-4.427s.406-12.115-5.909-16.688c-1.454-1.052-1.384-3.183-.817-4.886a17.43,17.43,0,0,0,.254-10.294,17.8,17.8,0,0,0-4.161-6.632,14.147,14.147,0,0,0-11.869-3.891,4.1,4.1,0,0,0-3.622,3.883,4.005,4.005,0,0,0,4.607,4.058c1.957-.3,5.139.292,6.108,1.89a9.273,9.273,0,0,1,.67,8.984c-10.491-7.1-22.36-12.039-31.278-15.123-1.054-.365-4.064-1.753-2.112-5.157,7.935-13.832,2.762-31,2.551-31.715a4,4,0,1,0-7.673,2.266c.043.143,4.174,14.5-1.9,25.612a11.739,11.739,0,0,0,3.384,14.987A9.5,9.5,0,0,0,207,192.157c10.547,3.621,25.6,10,36.694,19.583,5.458,4.713,4.276,11.876,4.276,11.876.447,5.663,5.372,11.211,10.983,12.1,6.045.956,12.509-3.553,14.118-9.109.775-2.679,1.426-5.281,1.933-7.735a26.626,26.626,0,0,0,.358-8.571c4.017-.743,7.973-1.474,11.814-2.182a118.3,118.3,0,0,0-4.009,29.221c-.025,3.988-5.06,7.2-8.821,2.308-1.2-1.556-2.993-2.62-4.847-1.977a4,4,0,0,0-2.227,5.714c.625,1.141,3.978,7.486,11.431,7.486,10.046,0,12.223-7.508,12.457-13.2a129.234,129.234,0,0,1,4.748-31.158c20.317-3.736,35.6-6.516,35.808-6.554a4,4,0,0,0-1.432-7.871c-.278.051-27.13,4.935-57.079,10.478a26.95,26.95,0,0,0-3.253-5.449c-5.3-6.868-12.218-15.748-17.913-22.754a4.852,4.852,0,0,1-.411-5.494,66.265,66.265,0,0,0,7.219-18.729l72.834-15.87a4.119,4.119,0,0,0,3.292-4.411,4,4,0,0,0-4.825-3.442L313.7,130c2.316-11.305,4.053-22.905,5.158-31.194a32.283,32.283,0,0,0-5.129-22.17c-8.682-13.039-17.934-25.595-22.678-31.921a11.436,11.436,0,0,1-2.287-6.87V27.161c0-6.441-6.516-15.5-12.735-18.112A19.186,19.186,0,0,0,253.2,14.883l-6.408,8.494a7.5,7.5,0,0,1-4.165,2.758,15.471,15.471,0,0,0-9.007,6.248L225.2,43.72l-2.053-9.384c-1.642-10.347,8.323-12.482,12.93-10.231a4.1,4.1,0,0,0,5.154-1.244,4,4,0,0,0-1.427-5.835,17.041,17.041,0,0,0-20.687,3.84A17.462,17.462,0,0,0,215.36,36.18L218.7,51.451S199.754,64.94,200.9,72.912C202.306,82.761,216.04,105.62,228.53,104.739Zm1.094-53.561S240.166,36.985,240.2,36.93a7.641,7.641,0,0,1,4.5-3.069,14.811,14.811,0,0,0,8.155-5.233l6.735-8.927a10.918,10.918,0,0,1,13.06-3.4c4.187,1.822,8.116,7.15,8.116,10.862V37.842a19.564,19.564,0,0,0,3.884,11.666c4.381,5.841,12.647,17.054,20.7,28.995-8.893,1.072-9.691,11.908-9.691,11.908-.465,4.112.949,8.433,4.406,10.7,2.163,1.419,5.457.058,6.174-1.509a4.193,4.193,0,0,0-1.116-4.68c-1.818-1.787-1.344-5.121-1.344-5.121a3.991,3.991,0,0,1,3.969-3.545h0a2.615,2.615,0,0,1,2.525,1.914,24.142,24.142,0,0,1,.654,9.575c-1.2,9.013-3.157,22-5.8,34.118l-6,1.306a80.1,80.1,0,0,0-2.966-22.2c-4.232-14.636-15.228-21.663-31.821-20.331A60.072,60.072,0,0,0,248.3,94.331a67.751,67.751,0,0,1-18.852,2.389,10.9,10.9,0,0,1-8.73-4.421l-2.739-3.713a17.847,17.847,0,0,0,5.786-12.892A4.116,4.116,0,0,0,220.5,71.5a4,4,0,0,0-4.74,3.933,9.83,9.83,0,0,1-2.363,6.377s-5.008-5.713-4.5-8.91C209.907,66.487,225.3,57.4,229.624,51.178Z"/><path d="M10.908,173.667l49.96,1.144a12.945,12.945,0,0,1,10.239,5.423,296.83,296.83,0,0,0,20.642,25.417,7.662,7.662,0,0,1,1.644,7.929A106.2,106.2,0,0,1,86.111,228.7a17.04,17.04,0,0,0-2.224,9.207c-32.812,6.546-73.11,8.981-73.11,8.981A4.162,4.162,0,0,0,7,250.936c0,3.955,4.278,3.946,4.422,3.93L27,253.214c-.653,9.8-1.655,26.572-1.9,40.6A36.97,36.97,0,0,0,30.1,313.22a45.462,45.462,0,0,0,18.251,17.636,17.806,17.806,0,0,0,16.815-1.407,13.024,13.024,0,0,0,4.452-5.653,15.58,15.58,0,0,0-4.188-17.978c-6.745-5.871-10.256-12.9-10.434-20.9-.244-10.9,1.026-25.491,2.011-34.891,0,0,15.438-1.994,25.4-3.721a5.4,5.4,0,0,1,5.913,3.2c3.492,8.307,1.517,20.275-.653,25.414a9.769,9.769,0,0,0,3.794,12.006,12.424,12.424,0,0,0,6.9,2.083,12.553,12.553,0,0,0,6.72-1.951,38.321,38.321,0,0,0,10-9.265,27.146,27.146,0,0,0,5.447-16.343V246.519c0-2.111.5-8.277,5.751-10.537,0,0,7.185-1.761,8.764-2.128,0,0-5,7.422-4.492,15.819.465,7.757-2.37,22.209-7.949,28.523a4.557,4.557,0,0,1-3.23,1.566,3.853,3.853,0,0,0-3.427,2.075,4.045,4.045,0,0,0,3.556,5.923l.16,0a12.488,12.488,0,0,0,8.936-4.265c7.446-8.426,10.056-25.275,9.953-33.915a20.973,20.973,0,0,1,2.621-10.252l1.771-3.247a10.708,10.708,0,0,1,7.508-5.413c3.037-.546,77.242-11.555,77.242-11.555a4.113,4.113,0,0,0,3.578-4.174,4,4,0,0,0-4.581-3.764s-53.71,6.888-84.995,13.036c-.023.007-.046.008-.068.015q-5.607,1.144-11.149,2.491l6.174-8.974a32.224,32.224,0,0,0,5.677-18.268V180.8a6.551,6.551,0,0,1,5.157-6.4l48.4-10.547a4.118,4.118,0,0,0,3.292-4.411A4,4,0,0,0,194.356,156l-52.028,11.336v-4.8a4.116,4.116,0,0,0-3.606-4.153,4,4,0,0,0-4.394,3.981v34.359a43.76,43.76,0,0,0-4.106-2.432,10.87,10.87,0,0,0-14.506,4.32,24.135,24.135,0,0,0-2.04,4.759,10.99,10.99,0,0,0,4.405,12.412,3.978,3.978,0,0,0,2.229.682,4.027,4.027,0,0,0,3.908-3.073c.438-1.642-.515-3.11-1.737-4.291-2.419-2.337-.357-5.565.2-6.561a2.931,2.931,0,0,1,3.868-1.139,41.578,41.578,0,0,1,6.875,4.572,24.169,24.169,0,0,1-3.368,7.235l-13.169,19.14a24.771,24.771,0,0,0-4.363,14.04v15.061a19.09,19.09,0,0,1-3.817,11.5,30.362,30.362,0,0,1-7.91,7.346,4.5,4.5,0,0,1-4.9-.029,1.83,1.83,0,0,1-.863-2.237c3.154-7.466,7.143-22.012-1.577-35.551a9.426,9.426,0,0,1-.405-9.807,104.046,104.046,0,0,0,7.835-16.305c3.842-10.832-4.268-17.225-4.814-17.82l3.2-4.168c5.188-7.075-.619-16.142-.619-16.142a12.291,12.291,0,0,0-12.449-5.714l-9.8,1.566a64.192,64.192,0,0,1-6.268-11.457,4.139,4.139,0,0,0-4.832-2.615,4,4,0,0,0-2.705,5.306c.2.507.41,1.021.633,1.539l-14.066-.322A153.112,153.112,0,0,1,54.3,147.346,48.8,48.8,0,0,1,65.11,130.034c.577-.6,3.041-3.736,5.905-2.869a27.826,27.826,0,0,0,10,1.363A16.948,16.948,0,0,0,95.9,117.364a4.092,4.092,0,0,0-1.765-4.959,4.007,4.007,0,0,0-5.746,2.2,9.059,9.059,0,0,1-7.932,5.942,16.63,16.63,0,0,1-5.5-.541c2.177-2.164,4.449-4.384,6.713-6.534a32.708,32.708,0,0,1,23.227-9.046c9.024.174,20.646.3,32.648.181l3.269,7.1c4.293,8.117,16.571,6.078,16.571,6.078,5.572-1.02,8.415-3.717,9.735-8.135l1.963-6.57a103.4,103.4,0,0,0,16.761-4.116c2.884-.96,11.2-2.853,11.2-2.853a4.116,4.116,0,0,0,3.245-4.444,4,4,0,0,0-4.865-3.392s-8.851,2.015-12.107,3.1a87.394,87.394,0,0,1-17.986,4.149c-6.656.728-21.993,1-25.289,1.048h-.011c-12.8.169-25.371.037-34.977-.149a40.552,40.552,0,0,0-28.892,11.244c-6.275,5.96-12.609,12.439-16.818,16.824A56.766,56.766,0,0,0,46.77,144.632a163.745,163.745,0,0,0-5.728,21.723l-29.951-.686a4,4,0,0,0-.183,8ZM57.451,313.3c2.458-.657,5.39.893,5.394,3.437.007,3.448-3.572,10.476-10.839,7C45.8,320.771,40.841,315.7,37,309.167A28.971,28.971,0,0,1,33.1,293.951c.15-8.558.586-18.17,1.051-26.561,1.006.835,4.367,2.628,2.365,8.934a4.415,4.415,0,0,0,1.521,4.923c1.345,1.009,5.053,1.335,6.342-3.033a15.474,15.474,0,0,0-.926-11.317,18.75,18.75,0,0,0-5.171-6.411,9.355,9.355,0,0,1-2.231-3.862,3.568,3.568,0,0,1,3-4.688l9.836-1.044C47.905,260.506,46.763,274.42,47,285.1a34.68,34.68,0,0,0,7.443,20.7c-1.049.214-4.972.813-7.336-2.51A5.667,5.667,0,0,1,46,299.371a4.126,4.126,0,0,0-3.026-4.429,4,4,0,0,0-4.918,3.472,13.647,13.647,0,0,0,2.573,9.569c2.265,3.126,5.727,5.611,9.6,5.839A22.244,22.244,0,0,0,57.451,313.3ZM87.469,180.424c3.594-.616,5.711,4.179,5.711,4.179a4.354,4.354,0,0,1-.253,4.907l-2.27,2.961c-.279-.323-8.906-10.913-9.055-11.109Zm72.985-76.419-1,3.357c-1.253,3.4-8.776,5.371-11.374,1l-1.793-3.9C147.383,104.447,160.087,104.025,160.454,104.005Z"/><path d="M125.848,173.115a40.008,40.008,0,0,0-.349-6.512,9.092,9.092,0,0,0-3.833-6.242,32.875,32.875,0,0,0-4.421-2.6h0a9.017,9.017,0,0,0-8.085.082,8.916,8.916,0,0,0-4.775,6.406,38.23,38.23,0,0,0-.539,8.307,8.842,8.842,0,0,0,6.19,8.2C120.9,183.761,125.675,177.95,125.848,173.115Zm-13.962-6.9a2.233,2.233,0,0,1,2.54-1.341,5.144,5.144,0,0,1,3.447,2.844,4.374,4.374,0,0,1-.37,5.184c-.732.9-4.052.945-4.962.251C111.056,172.022,111.125,168.753,111.886,166.217Z"/><path d="M130.873,130.252l-2.081-5.614c-1.236-3.334-3.819-6.189-7.326-6.777-6.513-1.093-14.157,5.3-14.157,5.3a10.437,10.437,0,0,0-2.53,13.6s4.523,9.365,11.526,9.365c1.239,0,8.5-2.508,8.5-2.508A10.457,10.457,0,0,0,130.873,130.252Zm-13.7,7.715c-5.362.022-5.537-5.328-5.537-5.328.175-4.892,4.95-6.56,4.95-6.56,5.407-1.509,6.788,6.953,6.788,6.953C123.372,137.967,117.171,137.967,117.171,137.967Z"/><path d="M163.506,130.569a9.774,9.774,0,0,0-13.951-2.594l-2.816,2.045a9.806,9.806,0,0,0-4.03,7.909v2.627a9.775,9.775,0,0,0,9.782,9.775c.2,0,6.228-.378,6.228-.378a9.775,9.775,0,0,0,7.581-15.07Zm-5.3,11.4-5.612.359c-1.6,0-2.273-1.948-1.744-4.195.227-.966,3.405-3.686,3.405-3.686a1.747,1.747,0,0,1,2.533.471l2.8,4.314C160.068,139.975,159.093,141.913,158.209,141.969Z"/><path d="M190.807,148.04a16.193,16.193,0,0,0,10.378-3.77s3.871-3.43,3.869-7.835a10.371,10.371,0,0,0-3.393-7.767l-2.169-1.942a10.815,10.815,0,0,0-17.653,5.221l-.875,3.219a10.2,10.2,0,0,0,9.843,12.874Zm-2.123-10.777.874-3.218a2.789,2.789,0,0,1,4.6-1.36l2.168,1.943a2.494,2.494,0,0,1-.052,3.322,8,8,0,0,1-5.464,2.09C189.383,140.043,188.377,139.059,188.684,137.263Z"/><path d="M239.375,140.806a11.2,11.2,0,0,0,5.295-5.363,10.779,10.779,0,0,0-1.292-11.058,14.12,14.12,0,0,0-5.185-4.625c-5.954-2.585-10.394.049-13.074,2.717-3.9,3.887-4.672,10.118-1.2,14.4,0,0,4.846,5.489,9.793,5.489A12.662,12.662,0,0,0,239.375,140.806ZM237.56,131.6c-.192.84-2.6,4.3-5.885,1.871,0,0-2.821-2.369-1.133-5.231a3.845,3.845,0,0,1,3.541-1.614c1.286.257,2.125,1.569,2.972,2.662A2.732,2.732,0,0,1,237.56,131.6Z"/><path d="M257.773,63.246A10.256,10.256,0,0,0,262.491,70a8.164,8.164,0,0,0,5.324,1.488c5.654-.891,9.318-3.588,10.577-6.234a10.166,10.166,0,0,0,.184-8.329A30.578,30.578,0,0,0,275.286,51a10.233,10.233,0,0,0-18.37,7.928Zm8-8.2h0a2.483,2.483,0,0,1,3.021.622,22.647,22.647,0,0,1,2.42,4.377,1.853,1.853,0,0,1-.044,1.772c-2.133,2.466-4.892,1.664-5.547-.125l-.856-4.32A2.24,2.24,0,0,1,265.77,55.046Z"/><path d="M261.014,38.81l10.117,2.353a4.221,4.221,0,0,0,4.8-2.981c1.541-6.558,1.111-11.569-1.277-14.9a8.321,8.321,0,0,0-5.741-3.545c-2.195-.2-4.462,1.4-4.359,3.605.168,3.606,6,2.122,4.242,9.059l-5.969-1.388a4,4,0,0,0-1.813,7.792Z"/><path d="M87.638,140.217a4,4,0,0,0-2.645,5l.706,2.291a4,4,0,0,0,3.822,2.823,4.106,4.106,0,0,0,3.824-5.179l-.706-2.291A4,4,0,0,0,87.638,140.217Z"/><path d="M99.961,231.844v2.4a4,4,0,0,0,8,0v-2.4a4,4,0,1,0-8,0Z"/><path d="M184.809,115.51l1.287-1.367a4,4,0,1,0-5.825-5.484l-1.287,1.368a4,4,0,0,0,5.825,5.483Z"/><path d="M228.351,149.289a4,4,0,0,0,0,8h2.611a4,4,0,0,0,0-8Z"/><path d="M240.375,63.146l2.52-2.625a4,4,0,1,0-5.771-5.54l-2.52,2.625a3.946,3.946,0,0,0,.115,5.656A4.273,4.273,0,0,0,240.375,63.146Z"/><path d="M286.248,80.277a4,4,0,0,0,4-4V74.594a4,4,0,0,0-8,0v1.683A4,4,0,0,0,286.248,80.277Z"/><path d="M212.243,112.93a3.9,3.9,0,0,0-3.659-6.892,11.2,11.2,0,0,0-6.278,9.988,10.206,10.206,0,0,0,9.42,10.316,4.024,4.024,0,0,0,3.971-3.335,3.971,3.971,0,0,0-3.252-4.6,2.392,2.392,0,0,1-2.139-2.382A3.359,3.359,0,0,1,212.243,112.93Z"/><circle cx="171.86" cy="152.417" r="4"/><circle cx="66.34" cy="148.906" r="4"/><circle cx="223.929" cy="173.174" r="4"/></svg>