<?xml version="1.0" encoding="UTF-8" standalone="no"?> <svg id="outline" xmlns="http://www.w3.org/2000/svg" viewBox="0 0 340 340"><title>4_the tapir</title><path d="M102.037,94.569c9.8-7.049,24.44-16.786,38.536-23.146a71.033,71.033,0,0,1,16.988-5.177,369.072,369.072,0,0,1,72.811-5.224,51.172,51.172,0,0,1,17.91,3.812c23.258,9.571,77.034,38.461,74.084,99.856a3.08,3.08,0,0,1-1.638,2.588,3.173,3.173,0,0,1-3.157-.045,4,4,0,1,0-4.035,6.907,11.131,11.131,0,0,0,11.006.17,11.038,11.038,0,0,0,5.814-9.236c3.195-66.481-54.2-97.422-79.029-107.638a59.149,59.149,0,0,0-20.7-4.41,377.629,377.629,0,0,0-74.443,5.339,79.139,79.139,0,0,0-18.9,5.766c-14.7,6.632-29.82,16.681-39.917,23.943a4,4,0,0,0,4.672,6.5Z"/><path d="M17.528,242.583l8.782.381c.215.01.43.015.643.015,6.845,0,12.653-4.77,13.364-11.1a101.994,101.994,0,0,1,2.061-12.671c.017-.063.017-.125.03-.188.017-.081.046-.156.058-.238.034-.231,3.556-23.226,12.112-33.737A4,4,0,0,0,48.373,180C38.8,191.765,34.978,214.88,34.584,217.4a111.221,111.221,0,0,0-2.216,13.585c-.284,2.518-3.155,4.09-5.71,3.983l-5.52-.24c-1.427-9.452-5.238-38.423-2.83-64.351.032-.329,3.588-33.079,41.8-48.854a4,4,0,0,0,2.459-4.042c-.019-.211-1.535-20.319,16.049-31.272a28.684,28.684,0,0,1,4.847,14.574c.014.95.033,13.08-8.34,16.051a4,4,0,1,0,2.675,7.539c14.238-5.052,13.688-23.186,13.658-23.955,0-.014-.005-.026-.006-.04s0-.025,0-.038c-.833-14.168-8.781-21.85-9.118-22.17a4,4,0,0,0-4.569-.659c-20.629,10.518-23.082,30.212-23.234,37.7a90.174,90.174,0,0,0-8.489,4.349,37.371,37.371,0,0,1,4.81-26.3,4,4,0,0,0,4.741-6.423c-2.006-1.692-3.392-2.631-3.45-2.67a4,4,0,0,0-5.452.939,45.526,45.526,0,0,0-7.824,39.11c-25.613,18.635-28.4,44.117-28.52,45.409-3.015,32.455,3.154,68.145,3.418,69.648A4,4,0,0,0,17.528,242.583Z"/><path d="M70.714,191.873c-.082.173-8.361,17.366-20.654,22.02a4,4,0,1,0,2.832,7.482c12.954-4.9,21.623-19.546,24.237-24.472,7.965-2.208,20.147-1.947,25.26-1.714,2.612,4.684,7.586,6.868,11.59,7.659,4.359,14.275,11.719,28.683,13.2,31.515a51.429,51.429,0,0,1-5.657,37.457,10.236,10.236,0,0,0,8.894,15.32h7.658a14.349,14.349,0,0,0,13.364-9.075,85.055,85.055,0,0,1,5.48-10.836c5.333-9.142,7.036-21.264,7.524-29.823a48.553,48.553,0,0,1,3.481-15.629,185.689,185.689,0,0,1,13.7-26.536c1.488.62,2.969,1.191,4.44,1.727,1.539,14.506,4.007,32.906,7.4,43.313a66.449,66.449,0,0,0,12.57,22.221,4.52,4.52,0,0,1,.037,5.879l-4.4,5.189a5.153,5.153,0,0,1-3.641,1.827,5.012,5.012,0,0,1-3.745-1.316,138.729,138.729,0,0,1-20.282-23.6,4,4,0,0,0-6.59,4.538,146.75,146.75,0,0,0,21.464,24.952,12.934,12.934,0,0,0,8.808,3.431c.281,0,.562-.008.844-.026a13.266,13.266,0,0,0,9.243-4.636l4.4-5.19a12.49,12.49,0,0,0-.053-16.245,58.384,58.384,0,0,1-11.049-19.5c-3.007-9.235-5.3-26.059-6.663-38.173a117.072,117.072,0,0,0,34.185,4.154l.932,4.8a32.909,32.909,0,0,0,5.391,12.789,141.338,141.338,0,0,0,14.04,16.379,10.143,10.143,0,0,1,2.877,5.9,32.355,32.355,0,0,1,.111,5.738,30.784,30.784,0,0,1-3.909,12.963c-1.454,2.608-2.836,5.382-4.107,8.245a11.785,11.785,0,0,0,10.8,16.542H262A15.468,15.468,0,0,0,277.1,275.106l.053-.221a34.767,34.767,0,0,1,2.706-7.3c4.97-10.1,7.46-22.361,8.5-28.771a15.39,15.39,0,0,0-2.268-10.94c-.191-.293-.375-.582-.553-.87a23.219,23.219,0,0,1-3-16.381,67.677,67.677,0,0,1,2.707-10.195A96.412,96.412,0,0,0,299.242,234.4a21.726,21.726,0,0,1,2.839,6.522c1.507,6.1,4,18.1,3.774,29.881a4.724,4.724,0,0,1-4.7,4.6H293.77a5.763,5.763,0,0,1-4.8-2.562,4,4,0,1,0-6.652,4.444,13.747,13.747,0,0,0,11.455,6.118h7.385a12.763,12.763,0,0,0,12.7-12.449c.247-12.7-2.4-25.471-4.007-31.956a29.637,29.637,0,0,0-3.875-8.929c-11.5-17.882-14.084-33.583-14.151-43.925A98.64,98.64,0,0,1,306.43,166.6c.034-.033.057-.072.089-.106s.067-.053.1-.086l5.527-6.13a4,4,0,1,0-5.941-5.357l-5.445,6.038c-1.736,1.706-21.249,21.384-26.088,48.253a31.2,31.2,0,0,0,4.066,22.007q.318.516.666,1.045a7.413,7.413,0,0,1,1.061,5.272c-.97,5.97-3.273,17.354-7.784,26.524a42.679,42.679,0,0,0-3.313,8.985l-.072.3a7.474,7.474,0,0,1-7.291,5.8h-7.291a3.755,3.755,0,0,1-3.2-1.738,3.682,3.682,0,0,1-.288-3.556c1.175-2.643,2.448-5.2,3.785-7.6a38.823,38.823,0,0,0,4.906-16.364,40.445,40.445,0,0,0-.151-7.168,18.187,18.187,0,0,0-5.131-10.581,133.252,133.252,0,0,1-13.195-15.37,24.961,24.961,0,0,1-4.073-9.7l-1.526-7.855a163.475,163.475,0,0,1,2.356-25.058,4,4,0,0,0-7.881-1.374,173.981,173.981,0,0,0-2.4,23.013c-7.681.2-26.826-.372-46.167-9.215a4,4,0,0,0-4.982,1.405,189.918,189.918,0,0,0-16.254,30.777,56.536,56.536,0,0,0-4.061,18.2c-.36,6.291-1.676,18.066-6.449,26.248a93.066,93.066,0,0,0-5.995,11.89,6.387,6.387,0,0,1-5.938,4.052h-7.658a2.214,2.214,0,0,1-1.949-1.122,2.18,2.18,0,0,1,0-2.217,59.333,59.333,0,0,0,6.394-43.753,4,4,0,0,0-.363-.965c-.09-.168-8.768-16.569-13.219-31.78,11.922-34.892,1.659-70.269,1.211-71.775a4,4,0,0,0-7.668,2.284c.1.337,9.594,32.995-.435,64.88-1.884-.538-4.174-1.625-5.184-3.791a57.735,57.735,0,0,0,.1-15.2,4,4,0,0,0-7.945.93,52.611,52.611,0,0,1,.237,10.512c-6.52-.249-19.918-.32-28.559,2.659A4.012,4.012,0,0,0,70.714,191.873Z"/><path d="M58,148.542a4,4,0,0,0-5.471-1.438L49.458,148.9a4,4,0,1,0,4.034,6.909l3.068-1.791A4,4,0,0,0,58,148.542Z"/><path d="M234.676,155.073l-.213.644a4,4,0,1,0,7.6,2.487l.189-.573a4,4,0,0,0-7.58-2.558Z"/></svg>