<?xml version="1.0" encoding="UTF-8" standalone="no"?> <svg id="outline" xmlns="http://www.w3.org/2000/svg" viewBox="0 0 340 340"><title>6_anaconda</title><path d="M326.192,94.144a57.347,57.347,0,0,0-12.317-33.28l-.055-.067a50.957,50.957,0,0,0-5.077-5.395c-.14-.129-.292-.245-.434-.373-.334-.3-.686-.591-1.033-.885-.474-.4-.945-.808-1.433-1.194-.163-.128-.337-.25-.5-.376-13.125-10.1-31.4-14.186-54.456-12.107-1.644.115-25.95,2.111-68.078,21.471-.347.15-31.351,13.36-58.486,13.319a84.69,84.69,0,0,1-9.481-.464,35.467,35.467,0,0,1-16.5-7.054c-.051-.039-.11-.062-.163-.1A36.078,36.078,0,0,1,87.458,54.2a115.208,115.208,0,0,1-5.579-13.974c-2.2-7.195-8.976-24.355-24.4-28.3A13.28,13.28,0,0,0,43.754,32.993c.117.148.236.3.351.438A51.946,51.946,0,0,1,55.791,59.925a65.574,65.574,0,0,1,.449,6.658c.01.267,1.12,23.879,23.181,36.36a152.862,152.862,0,0,0-17.78,8.7,62.658,62.658,0,0,0-8.09,5.536c-.184.079-1.42,1.183-2.765,2.411a54.054,54.054,0,0,0-7.53,8.455c-2.936,4.1-6.824,10.119-8.86,15.694a77.073,77.073,0,0,0-2.743,9.048,4.132,4.132,0,0,0,2.892,4.987A4,4,0,0,0,39.4,154.78a68.849,68.849,0,0,1,2.507-8.3,52.794,52.794,0,0,1,13.3-20.144,30.284,30.284,0,0,0,45.977-9.9,4.063,4.063,0,0,0-1.059-5.045,4,4,0,0,0-6.037,1.352,22.3,22.3,0,0,1-32.5,8.381q1.948-1.355,4.026-2.546c23.8-13.636,49.68-19.321,74.218-20.625a26.428,26.428,0,0,0,24.191,16.02,26.151,26.151,0,0,0,23.073-13.7,291.666,291.666,0,0,1,35.527,7.415,21.343,21.343,0,0,0,27.937,19.1,4.1,4.1,0,0,0,2.75-4.8,4,4,0,0,0-5.156-2.835,13.355,13.355,0,0,1-17.068-9.007c5.308,1.638,9.369,3.072,11.88,4a41.016,41.016,0,0,0,11.319,2.521c7.365.529,12.72-1.088,15.93-4.8a12.953,12.953,0,0,0,2.695-10.741c-.007-.034-.023-.064-.032-.1s-.008-.068-.017-.1a18.715,18.715,0,0,0-2.38-5.328,18.979,18.979,0,1,0-36.643-6.933c0,.241.014.484.024.727-1.143.284-2.3.585-3.487.919a4.121,4.121,0,0,0-3.021,4.622,4,4,0,0,0,5.026,3.124c2.362-.669,6.771-1.678,6.782-1.68,11.272-2.1,18.015-2.513,23.158,1.974a8.1,8.1,0,0,1,2.433,3.469,5.409,5.409,0,0,1,.291,2.951,4.076,4.076,0,0,1-.88,1.864c-1.429,1.652-4.735,2.382-9.307,2.053a33.029,33.029,0,0,1-9.106-2.041c-3.407-1.265-9.564-3.418-17.8-5.775-.078-.026-.159-.046-.239-.068a299.7,299.7,0,0,0-42.047-8.782,3.871,3.871,0,0,0-.385-.1,251.536,251.536,0,0,0-42.865-2.127,4.139,4.139,0,0,0-.414.064c-4.958.2-9.975.574-15.029,1.143a23.888,23.888,0,0,0,1.939-7.865c27.391-1.235,55.666-13.276,57.143-13.914,2.128-.978,4.2-1.9,6.233-2.788a21.565,21.565,0,0,0,35.1-1.18,4.09,4.09,0,0,0-.824-5.463,4,4,0,0,0-5.877,1.1,10.352,10.352,0,0,1-3.066,3.459c-6.236,4.063-13.2,2.972-17.569-1.2,32.633-13.3,51.2-14.717,51.4-14.73l.1-.008c16.883-1.529,30.814.457,41.607,5.9a23.362,23.362,0,0,0,21.389,32.831,23.624,23.624,0,0,0,2.742-.176,42.51,42.51,0,0,1,.894,7.238c0,.039.01.075.011.114s-.007.076,0,.116c.822,14.449-1.343,27.105-6.444,37.878a30.013,30.013,0,0,0-32.574,7.548,4.149,4.149,0,0,0,.181,5.887,4,4,0,0,0,5.556-.308,22.041,22.041,0,0,1,22.883-6.043,62.571,62.571,0,0,1-13.958,15.138,4.081,4.081,0,0,0-1.037,5.274,4,4,0,0,0,5.893,1.085,70.09,70.09,0,0,0,18.1-21.1,3.915,3.915,0,0,0,.256-.374c.059-.109.093-.224.141-.336C323.242,127.948,327.256,113.265,326.192,94.144ZM120.9,83.194c-.506,4.513-2.614,8.056-5.793,9.532A175.665,175.665,0,0,0,90,99.012c-24.48-8.847-25.723-31.729-25.761-32.631a73.439,73.439,0,0,0-.5-7.4A59.947,59.947,0,0,0,50.3,28.373l-.261-.326A5.28,5.28,0,0,1,55.5,19.674c11.49,2.94,16.925,16.985,18.728,22.887a121.448,121.448,0,0,0,5.972,15A44.175,44.175,0,0,0,91.1,72.168a21.637,21.637,0,0,0,.257,14.123,4,4,0,0,0,7.509-2.76,13.645,13.645,0,0,1-.728-6.308S105.089,82.376,120.9,83.194ZM241.88,87.771S242.631,77.7,252.828,77.7a11,11,0,0,1,10.985,10.985q0,.5-.046.992C257.154,87.162,249.784,86.731,241.88,87.771ZM178.291,99.165a18.214,18.214,0,0,1-14.263,6.813A18.4,18.4,0,0,1,148.7,97.666C159.177,97.666,168.792,98.281,178.291,99.165Zm136.266-20a15.412,15.412,0,0,1-15.394-15.394,28.41,28.41,0,0,1,.892-5.164,33.485,33.485,0,0,1,15.032,20.549S314.734,79.165,314.557,79.165Z"/><path d="M301.2,202.865c.681-11.7-3.124-23.521-11.224-34.549-8.734-11.892-36.754-40.108-108.149-45.3a239.492,239.492,0,0,0-57.023,2.2,185.022,185.022,0,0,0-41.994,11.509,4,4,0,0,0-1.013.425c-20.863,8.823-37.6,21.386-49.4,37.262C9,205.9,7.337,248.318,28.251,279.962c10.6,16.044,25.916,28.218,45.512,36.181a121.316,121.316,0,0,0,32.062,7.98c16.863,1.906,50.706,4.181,87.893-1.993a29.47,29.47,0,0,1,17.866,2.579,38.414,38.414,0,0,0,16.857,3.8q1.284,0,2.577-.081l26.345-1.646a31.506,31.506,0,0,0,16.946-6.055,30.815,30.815,0,0,0,2.7-2.268,15.1,15.1,0,0,0,3.7-5.492,25.117,25.117,0,0,1,8.236,2.446c1.186.672,2.372,1.363,3.559,2.055,7.693,4.487,15.65,9.126,24.425,9.126a4,4,0,0,0,0-8,20.033,20.033,0,0,1-5.108-.711,19.534,19.534,0,0,0,8.516-7.562,4,4,0,0,0-6.815-4.19,11.6,11.6,0,0,1-5.517,4.712,14.283,14.283,0,0,1-12.676-.986l-.148-.086c-.016-.009-.033-.013-.048-.022-.748-.435-1.5-.873-2.244-1.3a33.158,33.158,0,0,0-11.344-3.443,14.956,14.956,0,0,0-8.229-11.045,226.538,226.538,0,0,1-20.735-11.732,66.394,66.394,0,0,0-47.139-9.119,70.8,70.8,0,0,0-11.06,2.773c-4.96.675-57.562,6.959-86.689-24.864,26.191,12.69,55.8,16.457,79.293,16.664a200.685,200.685,0,0,0,40.58-3.95c7.372-1.414,14.945-3.232,22.723-5.524h0c1.669-.46,39.682-11.3,49.133-44.966l.022-.075A42.579,42.579,0,0,0,301.2,202.865ZM198.133,259.344a12.283,12.283,0,0,1,24.106-2.774A127.4,127.4,0,0,1,198.133,259.344Zm85.134-31.94a15.911,15.911,0,0,1,10-26.387A54.191,54.191,0,0,1,283.267,227.4Zm-76.861-93.327.284.05a9.98,9.98,0,0,1-19.062-2.582C194.109,132.17,200.4,133.02,206.406,134.077Zm-83.624,59.576c14.728-6.609,24.942-8.223,43.277-10.031a138.642,138.642,0,0,1,19.072.419c.033,0,.064.017.1.021a91.235,91.235,0,0,1,19.431,3.729c.11.036.222.054.334.08a37.341,37.341,0,0,1,13.375,7.216,3.27,3.27,0,0,1,1.058,2.954,3.1,3.1,0,0,1-1.787,2.371,11.057,11.057,0,0,1-1.261.479c-2.766.638-45.157,10.007-76.077-6.653a4,4,0,0,0-5.582,1.963,4.1,4.1,0,0,0,1.9,5.141,82.491,82.491,0,0,0,15.433,6.293,15.718,15.718,0,0,1-25.529-3.083,4,4,0,1,0-7.083,3.719,23.729,23.729,0,0,0,41.028,1.463,117.605,117.605,0,0,0,14.738,2.025,18.9,18.9,0,0,0,37.463-1.966c3.313-.584,5.37-1.072,5.746-1.164.039-.009.073-.028.111-.039s.08-.011.119-.024a19,19,0,0,0,2.329-.882c.055-.025.1-.059.158-.084a17.253,17.253,0,1,0,16.5-29.624,4.15,4.15,0,0,0-5.254,2.361,4,4,0,0,0,2.555,5.174,9.046,9.046,0,0,1,5.891,5.447,9.3,9.3,0,0,1-8.647,12.645,9.138,9.138,0,0,1-5.531-1.86,11.138,11.138,0,0,0,.693-2.486,11.277,11.277,0,0,0-3.6-10.1,40.32,40.32,0,0,0-10.958-6.824,17.83,17.83,0,0,0,2.735-9.689,17.988,17.988,0,0,0-35.975.154,17.78,17.78,0,0,0,.238,2.845,134.158,134.158,0,0,0-14.3,0l-.125.01a185.4,185.4,0,0,0-26.493,4.413,9.986,9.986,0,0,1,16.479-10.793,4.078,4.078,0,0,0,5.3.626,4,4,0,0,0,.653-5.968,17.988,17.988,0,0,0-31.281,12.119,17.817,17.817,0,0,0,1.1,6.184q-4.932,1.555-9.316,3.414a17.977,17.977,0,1,0-27.478,22.408A40.883,40.883,0,0,0,98.772,252.9c32.607,40.535,94.61,31.245,97.234,30.83a4.039,4.039,0,0,0,.864-.238,61.122,61.122,0,0,1,51.47,5.518,234.8,234.8,0,0,0,21.493,12.151,6.871,6.871,0,0,1,3.841,5.212,7.293,7.293,0,0,1,.056,1.761c0,.02-.01.038-.011.059a.108.108,0,0,0,0,.018,7.022,7.022,0,0,1-2.2,4.424,23.013,23.013,0,0,1-2,1.675,23.523,23.523,0,0,1-12.661,4.482l-26.345,1.647a30.773,30.773,0,0,1-15.422-2.922,37.423,37.423,0,0,0-22.689-3.282c-36.23,6.013-69.235,3.793-85.685,1.935a113.371,113.371,0,0,1-29.948-7.442c-18.073-7.345-32.154-18.508-41.85-33.181-19.064-28.845-17.5-67.576,3.893-96.377,11.869-15.979,27.906-26.723,44.427-33.942A9.045,9.045,0,0,1,79.9,160.186a9.127,9.127,0,0,1-7.708-.791,4.085,4.085,0,0,0-5.273.846,4,4,0,0,0,1.01,5.924,17.056,17.056,0,0,0,23.085-24.059,180.321,180.321,0,0,1,30.887-8.293,17.99,17.99,0,0,0,31.05,8.346,4.151,4.151,0,0,0,.095-5.594,4,4,0,0,0-5.939.125,9.711,9.711,0,0,1-4.39,2.989,10.02,10.02,0,0,1-12.889-7.128,239.922,239.922,0,0,1,49.743-1.708,17.956,17.956,0,0,0,35.047,4.854,167.816,167.816,0,0,1,30.232,9.479,22.123,22.123,0,0,0,21.532,25.391,4.254,4.254,0,0,0,4.412-3.836,4,4,0,0,0-4-4.161A14.2,14.2,0,0,1,252.626,148.8c18.465,9.349,27.519,19.651,30.9,24.254a49.309,49.309,0,0,1,9.069,19.993,23.9,23.9,0,0,0-14.738,40.282c-13.006,12.375-29.442,17.1-29.691,17.174-.011,0-.021.009-.032.012s-.022,0-.033.006c-6.135,1.809-12.137,3.313-18.008,4.551a20.266,20.266,0,0,0-39.961,4.578,188.93,188.93,0,0,1-50.082-5.856,20.488,20.488,0,0,0-29.9-24.179,4.066,4.066,0,0,0-1.85,4.835,4.006,4.006,0,0,0,5.862,2.089,12.571,12.571,0,0,1,11.4-.825,12.319,12.319,0,0,1,7.078,7.985,12.623,12.623,0,0,1-.315,7.943A185.893,185.893,0,0,1,99.55,238.186a32.531,32.531,0,0,1,2.578-27.679,22.128,22.128,0,0,1,3.593-4.47C109.871,202,117.346,196.092,122.782,193.653Zm-23.928,7.68a9.983,9.983,0,1,1,15.693-12.225C108.222,192.451,103.694,195.331,98.854,201.333Zm89.331-25.023a9.89,9.89,0,0,1-.649-3.516,9.988,9.988,0,0,1,19.976,0,9.868,9.868,0,0,1-2.6,6.709A80.471,80.471,0,0,0,188.185,176.31Zm16.242,34.7a10.921,10.921,0,0,1-20.883,1.125c.7.01,1.411.02,2.1.02A158.058,158.058,0,0,0,204.427,211.008Z"/><path d="M67.808,211.606c0-10.32-7.652-18.715-17.059-18.715s-17.059,8.4-17.059,18.715,7.653,18.715,17.059,18.715S67.808,221.925,67.808,211.606Zm-26.118,0c0-5.908,4.064-10.715,9.059-10.715s9.059,4.807,9.059,10.715-4.064,10.715-9.059,10.715S41.69,217.514,41.69,211.606Z"/><path d="M77.623,259.722a4,4,0,0,0-3.535,4.415A8.762,8.762,0,0,1,71,272.177c-3.953,3.054-10.108,1.734-13.72-2.939s-3.335-10.965.618-14.019a8.819,8.819,0,0,1,9.111-.728,4,4,0,1,0,3.259-7.305,16.893,16.893,0,0,0-17.261,1.7c-7.444,5.751-8.367,17.074-2.057,25.241a19.288,19.288,0,0,0,15.105,7.676,15.96,15.96,0,0,0,9.837-3.3,16.686,16.686,0,0,0,6.145-15.249A4,4,0,0,0,77.623,259.722Z"/><path d="M112.793,303.176a15.014,15.014,0,0,0,7.508,2.046,14.122,14.122,0,0,0,2.838-.286,12.317,12.317,0,0,0,9.368-16.226,14.768,14.768,0,0,0-6.7-8.08h0c-6.759-3.9-15.182-2.023-18.772,4.193A12.426,12.426,0,0,0,106.1,295.1,14.768,14.768,0,0,0,112.793,303.176Zm1.173-14.353a4.819,4.819,0,0,1,4.305-2.244,7.126,7.126,0,0,1,3.539.979h0a6.789,6.789,0,0,1,3.106,3.679,4.328,4.328,0,0,1-3.384,5.862,7.1,7.1,0,0,1-7.846-4.529A4.54,4.54,0,0,1,113.966,288.823Z"/><path d="M175.275,309.952a13.526,13.526,0,0,0,3.568.483,12.7,12.7,0,0,0,5.629-1.3,10.944,10.944,0,0,0,4.391-16.045,13.26,13.26,0,0,0-16.7-4.569,10.946,10.946,0,0,0-4.391,16.045A13,13,0,0,0,175.275,309.952Zm-1.283-12.306a3.191,3.191,0,0,1,1.716-1.95,4.705,4.705,0,0,1,2.088-.472,5.49,5.49,0,0,1,1.455.2h0a5.007,5.007,0,0,1,2.911,2.038,2.957,2.957,0,0,1-1.232,4.5,5.273,5.273,0,0,1-6.454-1.766A3.193,3.193,0,0,1,173.992,297.646Z"/><path d="M231.161,299.134l2.295.764a4,4,0,0,0,2.526-7.591l-2.3-.764a4,4,0,0,0-2.525,7.591Z"/></svg>