<?xml version="1.0" encoding="UTF-8" standalone="no"?> <svg id="outline" xmlns="http://www.w3.org/2000/svg" viewBox="0 0 340 340"><title>5_capybara</title><path d="M213.9,80.507a3.963,3.963,0,0,0,.289,5.619,4.038,4.038,0,0,0,5.681-.291,6.327,6.327,0,0,1,4.406-1.98,114.661,114.661,0,0,1,33.715,3.688c25.31,6.727,43.441,20.525,54.033,41.062a76.133,76.133,0,0,1-9.046-4.491,4,4,0,0,0-4.2,6.811c.562.346,13.949,8.51,30,10.739a4.2,4.2,0,0,0,.556.038,4,4,0,0,0,.546-7.962,61.723,61.723,0,0,1-7.382-1.513c-10.94-26.671-31.938-44.305-62.453-52.416a122.555,122.555,0,0,0-36.063-3.951A14.38,14.38,0,0,0,214,80.4Z"/><path d="M317.262,180.069h-2.611a4,4,0,0,0-3.94,3.311c-.02.117-2.14,11.411-15.921,24.345a59.569,59.569,0,0,1-10.718-4.6,4,4,0,0,0-4.031,6.909c.433.254,10.747,6.216,21.366,7.224a3.806,3.806,0,0,0,.383.019,3.989,3.989,0,0,0,2.119-7.371c8.622-9.176,12.309-17.448,13.78-21.842A13.168,13.168,0,0,0,330.406,175.1,117.8,117.8,0,0,0,327.72,149a4,4,0,1,0-7.813,1.723,109.641,109.641,0,0,1,2.5,24.293A5.14,5.14,0,0,1,317.262,180.069Z"/><path d="M50.563,155.177a4,4,0,0,0,4.5,3.429,119.645,119.645,0,0,1,13.974-1.076c3.765,7.275,17.339,30.276,46.17,47.811,2.514,5.637,14.166,34.787,5.389,72.96a10.814,10.814,0,0,0,10.55,13.219h8.407a12.532,12.532,0,0,0,11.622-7.787,202.161,202.161,0,0,0,13.9-60.169c1.976.595,4.5,1.3,7.552,2.019-.523,8.732-.226,23.834,4.709,44.01a4.992,4.992,0,0,1-1.652,5L170,279.305a3.251,3.251,0,0,1-2.691.7A3.315,3.315,0,0,1,165,278.361a4,4,0,1,0-6.953,3.956,11.309,11.309,0,0,0,17.061,3.147l5.682-4.709a13.041,13.041,0,0,0,4.318-13.062c-4.487-18.346-4.95-32.124-4.558-40.442a211.677,211.677,0,0,0,42.763,3.3c1.1,5.866,5.454,16.509,21.737,27.27a137.314,137.314,0,0,1-12.613,23.734,4.372,4.372,0,0,1-3.657,1.962h-7.93a3.435,3.435,0,0,1-3.185-4.712,55.06,55.06,0,0,0,.669-40.252,4,4,0,0,0-7.52,2.732,47.275,47.275,0,0,1-.583,34.564,11.436,11.436,0,0,0,10.619,15.668h7.93a12.354,12.354,0,0,0,10.329-5.548,147,147,0,0,0,12.885-23.979c.25.137.49.274.744.411a54.451,54.451,0,0,1-.121,15.207,12.214,12.214,0,0,0,2.855,9.743,12.07,12.07,0,0,0,9.125,4.166h9.819a12.128,12.128,0,0,0,11.653-8.795c2-7.115,3.207-18.849-2.3-34.455a35.218,35.218,0,0,1,5.117-22.7,3.988,3.988,0,0,0,.351-.671c.01-.024.012-.049.021-.073l0-.011a3.991,3.991,0,0,0-.457-3.676c-.034-.048-.078-.089-.113-.136a4,4,0,0,0-.389-.455c-.064-.062-.141-.111-.209-.169a4.01,4.01,0,0,0-.411-.321c-.012-.008-.021-.018-.033-.026a3.944,3.944,0,0,0-.385-.192c-.09-.043-.169-.1-.263-.136l-.069-.029-.013,0a76.7,76.7,0,0,1-9.307-4.383,4,4,0,1,0-3.933,6.965c1.909,1.079,3.969,2.1,6.184,3.1a42.238,42.238,0,0,0-3.907,24.687,3.953,3.953,0,0,0,.159.578c4.941,13.793,3.954,23.895,2.257,29.94a4.1,4.1,0,0,1-3.952,2.958H264.6a4.023,4.023,0,0,1-3.081-1.406,4.219,4.219,0,0,1-.979-3.368c1.652-11.53-.236-19.569-.317-19.906a4,4,0,0,0-2.051-2.614c-28.144-14.557-27.216-29.2-27.212-29.267.014-.112,0-.223.006-.335a3.916,3.916,0,0,0,.017-.435c-.037-.616-.74-15.263,13.747-30.327a4,4,0,1,0-5.765-5.546c-12.369,12.861-15.221,25.794-15.834,32.239-37.272.708-60-8.063-60.229-8.153a4,4,0,0,0-5.47,3.508,195.023,195.023,0,0,1-13.653,62.778,4.554,4.554,0,0,1-4.223,2.832h-8.407a2.818,2.818,0,0,1-2.215-1.069,2.747,2.747,0,0,1-.539-2.357,130.51,130.51,0,0,0-2.172-68.163l9.669,5.781a4,4,0,0,0,4.106-6.866L120.367,199.11h0l0,0c-32.451-19.333-45-46.816-45.119-47.086A4,4,0,0,0,72,149.662c-4.072-.422-12.191.231-18,1.016A4,4,0,0,0,50.563,155.177Z"/><path d="M15.722,144.935c.021.032.04.066.061.1a62.543,62.543,0,0,0,5.012,7.019,24.746,24.746,0,0,0,17.86,8.92l3.474,10.309a4,4,0,0,0,7.582-2.554l-4.336-12.869c-.01-.034-.023-.066-.034-.1l-4.41-13.088a4,4,0,0,0-7.582,2.555L35.8,152.5a16.669,16.669,0,0,1-8.84-5.549,54.565,54.565,0,0,1-4.378-6.133,15.152,15.152,0,0,1-1.007-3.941A10.857,10.857,0,0,1,24.9,128a16.1,16.1,0,0,0,4.883-12.437,4,4,0,1,0-7.988.42,8.2,8.2,0,0,1-2.577,6.384,20.528,20.528,0,0,0-3.1,4.022c-.455-1.49-.828-2.9-1.129-4.181a11.7,11.7,0,0,1,3.917-11.724C34.186,97.757,61.19,83.8,61.461,83.662c.082-.042.162-.087.241-.135,7.912-4.789,17.059-5.6,22.624-5.569l-.647,1.648a4,4,0,1,0,7.445,2.927l2.611-6.64A64.26,64.26,0,0,1,103.6,60.348a11.529,11.529,0,0,1,20.137,7.668v7.742a4,4,0,0,0,.916,2.547c4.18,5.06,9.491,9.877,16.623,11.907,27.228,7.753,44.274-.313,48.431-1.24.023,0,.042-.016.065-.021.056-.014.112-.02.167-.036.589-.169,14.548-4.25,24.9-13.658a4,4,0,0,0-5.381-5.92c-8.517,7.744-20.407,11.49-21.618,11.857-4.267.954-20.393,7.321-43.5,1.629-5.395-1.329-9.366-5-12.6-8.557v-6.25A19.528,19.528,0,0,0,97.558,55.1a71.218,71.218,0,0,0-9.9,14.957,60.315,60.315,0,0,0-11.059.33c2.816-5.073,6.911-9.76,12.738-11.257a4,4,0,1,0-1.99-7.748C78.477,53.66,71.392,60.96,66.76,72.531a43.565,43.565,0,0,0-9.081,4.08c-2.269,1.173-28.3,14.742-43.894,27.728a19.66,19.66,0,0,0-6.585,19.7A71.408,71.408,0,0,0,15.722,144.935Z"/><path d="M65.61,105.3a3.994,3.994,0,0,0,1.522-.3L72.8,102.66a4,4,0,0,0-3.047-7.4L64.085,97.6a4,4,0,0,0,1.525,7.7Z"/><path d="M152.574,111.991a92.773,92.773,0,0,1-12.71-5.537,4,4,0,0,0-3.847,7.014,99.2,99.2,0,0,0,13.957,6.089,4,4,0,1,0,2.6-7.566Z"/><path d="M122.184,132.07a4,4,0,0,0,.556,5.629c.431.353,10.643,8.7,19.98,13.7a4,4,0,1,0,3.777-7.052c-8.637-4.626-18.584-12.752-18.684-12.834A4,4,0,0,0,122.184,132.07Z"/><path d="M110.249,170.972a4,4,0,0,0,5.146-6.126c-6.321-5.309-14.435-16.26-14.516-16.37a4,4,0,0,0-6.437,4.751C94.8,153.707,103.2,165.049,110.249,170.972Z"/><path d="M118.387,151.814a4,4,0,0,0,0,5.657c.277.277,6.853,6.834,11.755,10.006a4,4,0,1,0,4.346-6.717c-4.188-2.71-10.384-8.884-10.445-8.946A4,4,0,0,0,118.387,151.814Z"/><path d="M155.727,186.8a4,4,0,0,0,.624,5.623,44.987,44.987,0,0,0,22.451,8.442c.121.011.24.015.359.015a4,4,0,0,0,.35-7.984,37.494,37.494,0,0,1-18.172-6.729A4,4,0,0,0,155.727,186.8Z"/><path d="M220.372,99.746a217.43,217.43,0,0,1-23.609.005,4,4,0,0,0-.559,7.98c.284.02,4.865.333,11.951.333,3.634,0,7.926-.083,12.635-.329a4,4,0,0,0-.418-7.989Z"/><path d="M262.445,100.227a57.141,57.141,0,0,0-16.926-2.243,4,4,0,1,0,.35,7.992,49.211,49.211,0,0,1,14.3,1.921,4,4,0,0,0,2.273-7.67Z"/><path d="M270.568,118.4c-6-2.537-16.127-3.864-16.555-3.92a4,4,0,0,0-1.025,7.934c.094.012,9.478,1.245,14.463,3.354a4,4,0,0,0,3.117-7.368Z"/><path d="M286.509,143.157c-6.733-5.486-15.681-5.9-16.058-5.914a4,4,0,0,0-.33,7.993c.066,0,6.709.354,11.335,4.123a4,4,0,0,0,5.053-6.2Z"/><path d="M292.621,185.41a99.891,99.891,0,0,1-10.009-3.109,4,4,0,0,0-2.821,7.486,106.019,106.019,0,0,0,10.955,3.4,4,4,0,1,0,1.875-7.777Z"/><path d="M247.524,222.916a4,4,0,0,0-3.662,7.112A85.284,85.284,0,0,0,259,235.9a4,4,0,1,0,2.047-7.733A78.451,78.451,0,0,1,247.524,222.916Z"/><path d="M149.25,130.889a4,4,0,0,0,1.886,5.332,100.023,100.023,0,0,0,14.116,5.331,4,4,0,0,0,2.166-7.7A93.493,93.493,0,0,1,154.582,129,4,4,0,0,0,149.25,130.889Z"/><path d="M169.3,104.677l-2.211-.423a4,4,0,1,0-1.5,7.858l2.211.423a4,4,0,0,0,1.5-7.858Z"/><path d="M186.341,116.458a4,4,0,0,0,3,4.8l2.676.617a4.062,4.062,0,0,0,.9.1,4,4,0,0,0,.894-7.9l-2.676-.617A4,4,0,0,0,186.341,116.458Z"/><path d="M223.259,130.622a59.105,59.105,0,0,1-15.7-1.208,4,4,0,0,0-1.788,7.8,70.122,70.122,0,0,0,14.109,1.551c1.345,0,2.717-.051,4.081-.171a4,4,0,0,0-.7-7.969Z"/><path d="M239.487,154.08a4,4,0,0,0-4.521-3.4,51.759,51.759,0,0,1-14.263.019,4,4,0,0,0-1.372,7.882,53.071,53.071,0,0,0,8.368.6,60.01,60.01,0,0,0,8.39-.579A4,4,0,0,0,239.487,154.08Z"/><path d="M269.013,168.186a4,4,0,0,0,.971-7.88,57.593,57.593,0,0,0-11.082-1.555,4,4,0,0,0-.226,8,49.646,49.646,0,0,1,9.359,1.316A3.97,3.97,0,0,0,269.013,168.186Z"/><path d="M226.158,191.67a4,4,0,1,0-.215-8A30.718,30.718,0,0,1,212.9,181a4,4,0,0,0-3.583,7.152,38.72,38.72,0,0,0,15.926,3.534Q225.7,191.682,226.158,191.67Z"/><path d="M175.771,153.05a4,4,0,0,0,1.253,5.516,42.685,42.685,0,0,0,15.295,5.123,4.083,4.083,0,0,0,.6.045,4,4,0,0,0,.591-7.956,35.6,35.6,0,0,1-12.238-3.99A4,4,0,0,0,175.771,153.05Z"/><path d="M191.871,179.581a41.887,41.887,0,0,1-8.317-1.949,4,4,0,0,0-2.6,7.566,49.1,49.1,0,0,0,10.325,2.361c.1.007.2.011.3.011a4,4,0,0,0,.291-7.989Z"/><path d="M207.815,196.682a4,4,0,0,0-2.3,7.662l2.872.862a4,4,0,1,0,2.3-7.662Z"/><path d="M142.16,194.923a4,4,0,0,0-4.928,6.3c.231.181,5.716,4.446,10.979,6.2a4,4,0,0,0,2.529-7.59A35.394,35.394,0,0,1,142.16,194.923Z"/><path d="M55.078,138.11l-4.445-3.538a4,4,0,0,0-4.983,6.26L50.1,144.37a4,4,0,1,0,4.982-6.26Z"/></svg>