<?xml version="1.0" encoding="UTF-8" standalone="no"?> <svg id="outline" xmlns="http://www.w3.org/2000/svg" viewBox="0 0 340 340"><title>11_macaws</title><path d="M135.027,281.094a25.454,25.454,0,0,1-8.95,11.838c-18.715,13.37-23.172,33.7-23.352,34.564a3.832,3.832,0,0,0,3.028,4.646,4.056,4.056,0,0,0,4.659-3.021c.458-1.307,4.083-18.259,20.232-29.795a33.274,33.274,0,0,0,11.734-15.459l8.065-21.383a34.192,34.192,0,0,0,.646-22.184c-2.076-6.623-4.763-16.248-5.783-24.487-.564-4.554.734-10.472,3.373-13.632a3.846,3.846,0,0,0-.853-5.49,3.959,3.959,0,0,0-5.49.853c-3.44,4.5-5.616,12.865-4.828,19.234,1.092,8.823,3.911,18.939,6.084,25.871a26.3,26.3,0,0,1-.5,17.063Z"/><path d="M306.152,267.1a34.965,34.965,0,0,0-10.145-5.808,149.776,149.776,0,0,0-52.124-9.386,25.394,25.394,0,0,1-16.068-5.5,239.843,239.843,0,0,1-20.043-17.767,32.964,32.964,0,0,1-9.152-18.978,76.606,76.606,0,0,1-.613-7.934,9.644,9.644,0,0,0,11.316-9.486,28.128,28.128,0,0,0-14.1-24.843,75.99,75.99,0,0,0,18.335-18.511s21.033-3.458,26.254-28.052c.357-1.684,1.127-3.232,1.551-4.866,4.668-5.422,11.137-15.479,16.7-33.359a94.507,94.507,0,0,1,5.32-13.432,24.355,24.355,0,0,0,7.642,1.265c.279,0,.562-.006.847-.016a4.077,4.077,0,0,0,4.022-3.8,3.927,3.927,0,0,0-4.123-4.057,15.754,15.754,0,0,1-4.514-.447c.733-1.194,1.482-2.372,2.266-3.512.737-1.071,1.543-2.2,2.405-3.362l9.838,15.409c1.748,3.094,5.259,1.441,5.991.759,18.34-17.1,16.189-54.135-13.881-63.162C271,7.384,256.265,4.7,242.915,9.776,232.159,13.864,221.837,21.6,212.723,35.84a39.032,39.032,0,0,1-10.752,11.052L184.2,59.2a14.868,14.868,0,0,1-6.933,2.536C151.74,64.4,114.74,78.231,75.115,125.993a12.038,12.038,0,0,0-2.217,11.4,11.856,11.856,0,0,0,8.274,7.889c6.873,1.826,15.834.549,26.668-3.8,3.855,3.651,13.031,8.843,31.571,3.3,3.476,3.144,11.6,7.072,28.626,1.3,2.059,1.722,5.665,3.584,11.634,3.583a46.4,46.4,0,0,0,15.447-3.117,30.778,30.778,0,0,0,8.323,2.6,60.556,60.556,0,0,1-18.138,15.18,3.931,3.931,0,0,0-.392.2,47.7,47.7,0,0,1-29.065,4.817,4.078,4.078,0,0,0-4.627,3.056,3.929,3.929,0,0,0,3.274,4.688c1.339.2,2.81.355,4.375.463-3.564,5.975-5.832,14.782-1.685,26.747a7.542,7.542,0,0,0,7.186,5.035h.016c.128,2.525.331,5.5.654,8.616a40.956,40.956,0,0,0,11.228,24.062c9.081,9.427,22.842,23.274,36.826,35.709a32.923,32.923,0,0,0,22.455,8.27c19.748-.244,52.991,4.894,53.8,42.4a3.928,3.928,0,1,0,7.855-.169c-.985-45.935-43.517-50.327-61.755-50.086a25.167,25.167,0,0,1-17.129-6.285c-13.8-12.269-27.4-25.963-36.389-35.289a33.065,33.065,0,0,1-9.072-19.423c-.738-7.11-.818-13.665-.826-14.906,1.328-11.395,10.523-10.715,10.677-10.734a8.6,8.6,0,0,1,7.711,4.048,64.531,64.531,0,0,0,.408,15.086,40.87,40.87,0,0,0,11.356,23.521,248.064,248.064,0,0,0,20.729,18.386,33.3,33.3,0,0,0,21.047,7.225,141.3,141.3,0,0,1,49.306,8.89,27.128,27.128,0,0,1,7.875,4.494c26.124,21.67,19.25,52.944,18.944,54.265a3.844,3.844,0,0,0,2.925,4.717,4.081,4.081,0,0,0,4.725-2.924C328.086,327.7,336.1,291.938,306.152,267.1ZM291,35.8c1.3,6.063,2.074,16.889-5.353,26.332l-5.568-8.721a7.216,7.216,0,0,1,.948-8.926A77.439,77.439,0,0,1,291,35.8Zm-2.49-7.843a75.17,75.17,0,0,0-6.152,4.592,39.067,39.067,0,0,0-6.222-15.278C283.753,20.372,287.117,25.111,288.509,27.959ZM107.216,133.223c-12.818,5.553-20.139,5.5-24.024,4.464A3.977,3.977,0,0,1,80.383,135a4.159,4.159,0,0,1,.779-3.99c37.2-44.841,71.49-59.117,95.411-62.12a30.053,30.053,0,0,0,12.3-4.44l17.571-11.1a46.835,46.835,0,0,0,12.9-13.276,57.835,57.835,0,0,1,20.945-19.617,38.775,38.775,0,0,0-1.338,25.151,27.312,27.312,0,0,0,8.941,14.453,3.928,3.928,0,0,0,5.6-.643,4.09,4.09,0,0,0-.8-5.58,19.728,19.728,0,0,1-6.157-10.27c-3.187-11.857.516-20.635,4.9-27.682,1.47-.382,12.113-2.587,16.793,3.931a34.832,34.832,0,0,1,6.959,19.365,115.5,115.5,0,0,0-12.143,14.964,89.277,89.277,0,0,0-4.933,8.1c-.031.056-.073.1-.1.161-.013.027-.019.055-.031.081a100.709,100.709,0,0,0-7.424,17.785,115.192,115.192,0,0,1-8.04,19.858,40.769,40.769,0,0,0-7.507-19.455,41.854,41.854,0,0,0-4.781-5.494,34.688,34.688,0,0,0-26.386-9.748c-3.511.234-4.8,2.046-4.737,4.129.066,2.349,1.241,3.924,5.388,3.7a27.044,27.044,0,0,1,20.28,7.574,33.949,33.949,0,0,1,3.882,4.459c6.71,9.228,8.137,21.46,3.818,32.72-4.78,12.46-11.059,20.086-18.663,22.666a19.007,19.007,0,0,1-9.555.613c4.025-3.185,8.5-8.048,9.929-14.619a26.05,26.05,0,0,0,8.229-5.6,4,4,0,0,0,.6-5.04,3.931,3.931,0,0,0-6.047-.62c-6.4,6.35-13.158,5.779-17.918,4.009,5.468-3.228,10.735-8.507,15.04-16.87a4.023,4.023,0,0,0-.972-5,3.931,3.931,0,0,0-5.95,1.283c-8.56,16.743-21.581,18.258-30.18,17.028,5.432-3.872,10.653-9.7,15.108-18.294a4.014,4.014,0,0,0-.952-4.992,3.932,3.932,0,0,0-5.962,1.258c-11.027,21.381-27.228,22.419-37.143,20.565A50.338,50.338,0,0,0,163.6,97.812a4.026,4.026,0,0,0-.6-5.059,3.933,3.933,0,0,0-6.035.848,46.737,46.737,0,0,1-9.091,11.1,31.189,31.189,0,0,1-19.215,7.544,56.513,56.513,0,0,1-13.058-.881,4,4,0,0,0-4.332,1.958,3.93,3.93,0,0,0,2.067,5.48,37.491,37.491,0,0,0,9.376,1.845C117.958,126.4,110.524,131.358,107.216,133.223Zm60.54,4.609c-10.686,4.017-16.814,3.693-20.144,2.62a19.121,19.121,0,0,0,5.708-7.474,3.928,3.928,0,1,0-7.29-2.929c-1.343,3.341-5.215,5.778-6.794,6.541-13.268,4.425-20.374,2.739-23.87.795,5.066-3.41,13.082-9.634,17.036-17.071a40.094,40.094,0,0,0,4.81-1.029,48.152,48.152,0,0,0,17.717,3.506,39.028,39.028,0,0,0,11.454-1.674,44.7,44.7,0,0,0,14.987,2.85A26.9,26.9,0,0,1,167.756,137.832Zm26.123.791c-8.5,3.244-13.795,3.512-16.983,2.944a33.867,33.867,0,0,0,12.962-18.078,28.793,28.793,0,0,0,15.379,4.935C201.993,134.6,194.742,138.21,193.879,138.623Zm-11.8,45.044c-8.346.061-14.359,4.649-16.819,12.554a1.076,1.076,0,0,1-2.091-.119,21.877,21.877,0,0,1,1.1-11.8,12.645,12.645,0,0,1,9.327-7.662,55.732,55.732,0,0,0,13.469-4.486c12.508,4.87,14.415,14.581,14.408,20.064a1.8,1.8,0,0,1-.837,1.514,1.723,1.723,0,0,1-1.408.221,1.964,1.964,0,0,1-1.243-1.021A16.579,16.579,0,0,0,182.074,183.667Z"/><path d="M99.905,156.918a3.929,3.929,0,1,0-7.08-3.407c-3.707,7.7-12.221,10.775-13.469,11.189a52.205,52.205,0,0,1-16.781.92,3.071,3.071,0,0,1-2.46-1.97,3.229,3.229,0,0,1,.5-3.261c2.642-3.226,5.612-6.6,8.825-10.029a3.928,3.928,0,1,0-5.731-5.373c-3.333,3.555-6.419,7.062-9.172,10.424a11.037,11.037,0,0,0-.618,13.223c-3.97,2.54-14.213,6.018-17.046,6.719a11.878,11.878,0,0,0-8.143,6.91,11.712,11.712,0,0,0-.84,6.293c-1.732.187-3.814.364-6.039.45a10.962,10.962,0,0,0-3.695,21.1,35.16,35.16,0,0,0,13.278,2.31A76.23,76.23,0,0,0,51.8,209.2q3.567-1,7.162-2.089C25.658,256.922,12.915,311.507,11.5,317.925c-.062.284-.406,2.965-.449,3.936a10.723,10.723,0,0,0,8.306,11.085,11.762,11.762,0,0,0,2.851.357,10.782,10.782,0,0,0,9.826-6.3l5.337-11.161a24.1,24.1,0,0,1,5.523-7.428A175.007,175.007,0,0,0,62.635,286.4a69.68,69.68,0,0,0,7.812-12.943c12.345-26.5,30.247-51.811,46.005-71.439a92.087,92.087,0,0,0,4.932,23.507,105.894,105.894,0,0,1,3.071,11.159,30.574,30.574,0,0,1-1.6,18.1l-4.78,11.643A30.576,30.576,0,0,1,105.062,281.3c-12.462,7.133-33.77,22.667-36.469,46.559a3.8,3.8,0,0,0,3.463,4.344,4.076,4.076,0,0,0,4.344-3.462c2.31-20.449,21.394-34.228,32.565-40.622a38.466,38.466,0,0,0,16.374-18.717l4.78-11.642a38.4,38.4,0,0,0,2.018-22.729,112,112,0,0,0-3.336-12.1,83.542,83.542,0,0,1-4.727-30.18c5.127-6.089,9.841-11.409,13.834-15.778,7.361-2.348,13.308-9.8,17.3-17.874a3.929,3.929,0,1,0-7.042-3.486,42.256,42.256,0,0,1-8.123,11.092,22.694,22.694,0,0,1-18.278,4.244,24.122,24.122,0,0,0,7.134-11.916,3.928,3.928,0,0,0-7.617-1.925,17.361,17.361,0,0,1-9.753,11.343c-11.887,4.065-19.338,2.759-23.552.884A29.418,29.418,0,0,0,99.905,156.918Zm12.729,19.443a36.1,36.1,0,0,0,12.723,2.847c-18.289,20.82-45.163,54.711-62.033,90.93A61.837,61.837,0,0,1,56.4,281.62a188.293,188.293,0,0,1-12.92,15.211,378.118,378.118,0,0,1,39.705-79.748,4,4,0,0,0-.407-5.019,3.932,3.932,0,0,0-6.082.587c-29.248,44.222-42.727,86.79-45.913,97.793a30.906,30.906,0,0,1-1.8,4.721l-4.041,8.45a3.074,3.074,0,0,1-3.685,1.708c-.579-.144-2.823-1.813-2.089-5.7.5-2.659,14.651-64.931,52.123-116.45,12.855-4.314,25.877-9.34,38.916-15.052a4.047,4.047,0,0,0,2.314-4.886,3.928,3.928,0,0,0-5.312-2.379A442.8,442.8,0,0,1,49.669,201.64c-12.332,3.471-21.939,3.867-28.554,1.184a3.106,3.106,0,0,1,1.043-5.967,96.788,96.788,0,0,0,11.8-1.2c1.709-.221,22.466-3.006,36.921-9.536a4.053,4.053,0,0,0,2.273-4.952,3.93,3.93,0,0,0-5.34-2.283c-10.694,4.874-25.9,7.606-32.125,8.578a3.953,3.953,0,0,1,.274-2.116,4.086,4.086,0,0,1,2.805-2.372c3.1-.766,16.727-5.4,22.158-9.7a54.338,54.338,0,0,0,18.036-.521C82.839,176.22,93.165,182.552,112.634,176.361Z"/><circle cx="261.183" cy="32.869" r="3.928"/></svg>